PathFileType	3	(X/Y/Z)	E:\ViconData\BIOM9541 2025\Week 7\Wed1100\Hanif 90 squat 5 Squat 01.trc
DataRate	CameraRate	NumFrames	NumMarkers	Units	OrigDataRate	OrigDataStartFrame	OrigNumFrames
200.0	200.0	8	19	mm	200.0	927	1853	
Frame#	Time	C7			CLAV			RBAK			LASI			RASI			LPSI			RPSI			LTHI			LKNE			LTIB			LANK			LHEE			LTOE			RTHI			RKNE			RTIB			RANK			RHEE			RTOE			
		X1	Y1	Z1	X2	Y2	Z2	X3	Y3	Z3	X4	Y4	Z4	X5	Y5	Z5	X6	Y6	Z6	X7	Y7	Z7	X8	Y8	Z8	X9	Y9	Z9	X10	Y10	Z10	X11	Y11	Z11	X12	Y12	Z12	X13	Y13	Z13	X14	Y14	Z14	X15	Y15	Z15	X16	Y16	Z16	X17	Y17	Z17	X18	Y18	Z18	X19	Y19	Z19	
927	4.63	338.28964	1269.4757	-1228.5518	193.44775	1191.6536	-1220.3134	357.47134	1188.1392	-1373.4807	258.32257	829.98419	-1092.4503	252.36356	839.20233	-1353.8821	423.07745	896.65015	-1178.9323	423.05081	892.50714	-1252.4784	231.17238	556.09412	-967.47437	196.45198	417.30872	-954.26831	260.12845	215.60797	-943.22522	304.28912	62.890678	-969.9137	327.5871	49.867233	-1029.734	162.97325	38.533276	-943.73389	294.97803	708.34387	-1430.1666	209.25433	410.1929	-1476.6234	232.05376	324.29318	-1484.2908	299.59601	71.151833	-1436.2865	322.45593	49.411644	-1369.7963	164.3311	40.822083	-1468.488
928	4.635	338.47083	1272.1241	-1228.458	193.19447	1194.7761	-1220.0165	357.76312	1190.8822	-1373.4099	257.36047	832.8692	-1092.3295	251.70073	841.86426	-1353.7494	422.23398	899.31104	-1178.8317	422.67819	895.07294	-1252.7821	231.97353	556.96674	-968.38855	198.51477	417.93045	-955.72559	261.08942	215.82152	-943.7973	304.41858	62.856422	-969.84943	327.7384	49.761734	-1029.6292	163.02219	38.507347	-943.92786	294.87384	710.00769	-1429.7911	211.68416	410.86594	-1475.1912	234.19038	324.82266	-1483.2292	299.81552	71.067398	-1436.2134	322.56885	49.317513	-1369.8108	164.35544	40.7673	-1468.4723
929	4.64	338.72498	1274.8608	-1228.4318	193.78526	1197.3606	-1220.3636	358.04541	1193.531	-1373.2932	256.39957	835.47839	-1092.0938	250.94485	844.53998	-1353.6418	421.40936	901.89655	-1178.7621	421.92578	897.5752	-1252.6257	232.80049	557.91962	-969.29199	200.64462	418.48145	-957.25616	262.04327	216.09155	-944.32465	304.55124	62.840469	-969.76196	327.87332	49.703114	-1029.5742	163.04573	38.437202	-943.98108	294.69788	711.65967	-1429.3696	214.15457	411.57822	-1473.7517	236.26692	325.38031	-1482.0448	300.02542	71.013687	-1436.2068	322.71509	49.246544	-1369.9126	164.35072	40.733883	-1468.4369
930	4.645	338.92645	1277.4642	-1228.3282	193.92462	1200.1088	-1220.3778	358.22968	1196.0883	-1373.1951	255.45108	838.18536	-1091.9635	250.22978	847.17676	-1353.5265	420.56418	904.42023	-1178.2885	420.68805	900.52869	-1251.691	233.63716	558.65015	-970.28821	202.77281	419.01352	-958.69293	262.99814	216.35545	-944.83014	304.64163	62.82872	-969.68164	327.98221	49.69907	-1029.4695	163.01939	38.420185	-944.0426	294.49496	713.3028	-1428.9299	216.53635	412.31262	-1472.2065	238.32428	326.03333	-1480.8517	300.19809	71.118767	-1436.1205	322.8222	49.208069	-1369.9327	164.35228	40.78994	-1468.3738
931	4.65	339.16757	1280.0701	-1228.2172	193.63338	1203.1499	-1219.8804	358.40646	1198.6438	-1373.0288	254.46063	840.75708	-1091.7117	249.48193	849.81439	-1353.4026	419.70609	906.9989	-1178.093	419.81082	902.87585	-1251.3932	234.47206	559.41742	-971.23138	204.92331	419.48862	-960.07257	263.97952	216.51875	-945.42883	304.72534	62.806198	-969.59198	328.04437	49.672417	-1029.3503	163.03015	38.36935	-944.08264	294.32098	714.93445	-1428.4744	219.00145	413.17291	-1470.6445	240.4075	326.67975	-1479.702	300.38162	71.22953	-1436.0193	322.92596	49.221432	-1369.8519	164.34677	40.877583	-1468.3594
932	4.655	339.42389	1282.5754	-1228.1469	193.70184	1205.6034	-1219.5625	358.54657	1200.9576	-1372.9382	253.46678	843.26276	-1091.6094	248.73112	852.35828	-1353.3091	418.84622	909.396	-1177.7345	419.41132	904.7951	-1251.8356	235.35172	560.13367	-972.21674	207.0757	419.92648	-961.57416	264.89935	216.72919	-945.96069	304.8024	62.738075	-969.56079	328.19031	49.668861	-1029.318	162.99185	38.392834	-944.17889	294.09442	716.52148	-1427.9658	221.37813	413.8902	-1469.0941	242.51585	327.25491	-1478.582	300.64807	71.253967	-1435.9572	323.04745	49.184883	-1369.83	164.35715	40.919292	-1468.3121
933	4.66	339.65158	1284.9537	-1228.0492	194.33272	1208.0569	-1220.0504	358.79575	1203.309	-1372.7977	252.49132	845.70581	-1091.5302	248.0329	854.71417	-1353.1864	418.01459	911.58527	-1177.6581	418.72015	907.24115	-1251.5892	236.16104	560.80353	-973.13763	209.16908	420.3999	-963.01636	265.93552	217.0564	-946.62714	304.89996	62.747807	-969.5238	328.29254	49.61161	-1029.2384	162.94405	38.401962	-944.27545	293.9079	717.74054	-1427.4534	223.7836	414.49878	-1467.4998	244.62909	327.71356	-1477.3112	300.9003	71.187195	-1435.9269	323.2561	49.06694	-1370.0348	164.38538	40.885921	-1468.2823
934	4.665	339.9216	1287.2345	-1227.9968	194.48409	1210.5345	-1219.9077	359.06964	1205.5477	-1372.6935	251.55524	848.01703	-1091.4265	247.26363	857.01215	-1353.0905	417.186	913.65796	-1177.5288	417.54828	909.85199	-1250.7513	237.0334	561.40338	-974.16748	211.21408	420.77237	-964.45337	266.89377	217.26781	-947.20355	305.0249	62.716595	-969.56763	328.38715	49.484856	-1029.2157	162.92282	38.422832	-944.39368	293.71994	719.29474	-1426.9938	226.20692	415.05841	-1465.9382	246.71477	328.20578	-1476.1052	301.15759	71.129097	-1435.8453	323.51465	48.904221	-1370.3325	164.43221	40.799496	-1468.1936
